<svg width="60" height="60" fill="none" xmlns="http://www.w3.org/2000/svg"><g clip-path="url(#clip0_100_527)"><path d="M30 60c16.569 0 30-13.431 30-30C60 13.431 46.569 0 30 0 13.431 0 0 13.431 0 30c0 16.569 13.431 30 30 30z" fill="#FFCC29"/><path d="M30.253 40.125l-3.92-3.477-4.27 5.903 16.275 16.273c10.088-2.913 17.99-10.978 20.673-21.161l-20.69-20.69-18.931 5.212 8.312 8.294-.425 1.89 6.529 6.315s-2.243 1.683-3.553 1.44z" fill="#FFA929"/><path d="M38.322 16.974c-1.88-2.095-5.02-3.346-8.4-3.346-.685 0-1.372.063-2.042.187l-.206.038c-2.056.38-3.92 1.325-5.388 2.733-1.438 1.381-2.4 3.115-2.78 5.015l-.116.584 6.943.526.141-.365c.402-1.04 1.373-1.819 2.532-2.033l.206-.038c1.31-.242 2.654.2 3.51 1.154 1.135 1.264 1.022 3.295-.247 4.435-.615.553-3.642 1.19-4.648 1.149l-.55-.024v5.381l.55-.023c1.013-.043 4.033.596 4.648 1.148 1.269 1.14 1.382 3.171.247 4.436-.856.953-2.2 1.395-3.51 1.153l-.206-.038c-1.16-.214-2.13-.993-2.532-2.033l-.141-.365-6.943.526.117.584c.38 1.9 1.34 3.634 2.78 5.015 1.468 1.408 3.33 2.353 5.387 2.733l.206.038c.67.124 1.357.187 2.042.187 3.38 0 6.52-1.25 8.4-3.346 3.167-3.53 3.018-9.018-.27-12.705 3.288-3.688 3.437-9.176.27-12.706z" fill="#F8FFFB"/><path d="M38.05 29.679c3.29 3.688 3.44 9.176.272 12.707C36.456 44.463 33.35 45.71 30 45.73v-6.582c1.04-.02 2.04-.455 2.722-1.218 1.135-1.264 1.022-3.295-.247-4.435-.34-.305-1.412-.637-2.475-.865v-5.902c1.063-.228 2.135-.559 2.475-.864 1.27-1.14 1.382-3.17.247-4.435-.683-.763-1.681-1.198-2.722-1.218V13.63c3.35.019 6.456 1.266 8.322 3.344 3.167 3.53 3.018 9.018-.271 12.706z" fill="#D8D8D8"/></g><defs><clipPath id="clip0_100_527"><path fill="#fff" d="M0 0h60v60H0z"/></clipPath></defs></svg>