<svg width="33" height="32" fill="none" xmlns="http://www.w3.org/2000/svg"><circle cx="16.395" cy="15.658" r="15.658" fill="#FFCC29"/><g clip-path="url(#clip0_100_640)" fill="#39373A"><path d="M12.886 13.422H9.684v9.842h3.202v-9.842zm8.719.115c-.034-.01-.066-.022-.102-.032a2.062 2.062 0 00-.13-.025 2.87 2.87 0 00-.574-.058c-1.866 0-3.05 1.357-3.44 1.881v-1.881h-3.201v9.842h3.201v-5.368s2.42-3.37 3.44-.895v6.263H24v-6.642a3.192 3.192 0 00-2.393-3.085zM11.25 12.079a1.566 1.566 0 100-3.132 1.566 1.566 0 000 3.132z"/></g><defs><clipPath id="clip0_100_640"><path fill="#fff" transform="translate(9.684 8.947)" d="M0 0h14.316v14.316H0z"/></clipPath></defs></svg>