<svg width="32" height="32" fill="none" xmlns="http://www.w3.org/2000/svg"><circle cx="16.131" cy="15.658" r="15.658" fill="#FFCC29"/><g clip-path="url(#clip0_100_652)" fill="#39373A"><path d="M19.934 7.158h-6.71a5.593 5.593 0 00-5.592 5.592v6.71a5.593 5.593 0 005.592 5.593h6.71a5.593 5.593 0 005.592-5.592v-6.71a5.593 5.593 0 00-5.592-5.593zm3.915 12.303a3.919 3.919 0 01-3.915 3.914h-6.71a3.919 3.919 0 01-3.915-3.914v-6.71a3.919 3.919 0 013.915-3.915h6.71a3.919 3.919 0 013.915 3.914v6.71z"/><path d="M16.579 11.633a4.474 4.474 0 100 8.948 4.474 4.474 0 000-8.948zm0 7.27a2.8 2.8 0 01-2.796-2.796 2.8 2.8 0 012.796-2.797 2.8 2.8 0 012.796 2.796 2.8 2.8 0 01-2.796 2.796zm4.809-7.01a.596.596 0 100-1.192.596.596 0 000 1.192z"/></g><defs><clipPath id="clip0_100_652"><path fill="#fff" transform="translate(7.632 7.158)" d="M0 0h17.895v17.895H0z"/></clipPath></defs></svg>