<svg width="132" height="46" fill="none" xmlns="http://www.w3.org/2000/svg"><g clip-path="url(#clip0_95_13)"><path fill-rule="evenodd" clip-rule="evenodd" d="M.018 43.998c0-.263.163-.477.369-.477h35.587c.205 0 .368.214.368.477s-.163.478-.368.478H.387c-.206 0-.369-.215-.369-.478zm95.64 0c0-.263.163-.477.368-.477h35.587c.206 0 .369.214.369.477s-.163.478-.369.478H96.026c-.205 0-.368-.215-.368-.478z" fill="#FFCC29"/><path d="M55.568 21.944V32.42c0 1.898.218 2.81 1.456 3.447H46.472c1.239-.63 1.456-1.543 1.456-3.447l-.036-11.419c-.012-4.072-4.122-1.665-4.122 1.39V32.42c0 1.898.218 2.81 1.457 3.447H34.674c1.24-.63 1.457-1.543 1.457-3.447l-.037-11.419c-.012-4.366-4.37-1.304-4.37 1.935v9.49c0 1.898.218 2.81 1.457 3.447H22.804c1.239-.63 1.456-1.543 1.456-3.447V20.272c0-1.88-.217-2.791-1.42-3.422h8.727v2.939c1.5-4.72 9.713-4.42 11.744.006 2.931-5.94 12.257-3.613 12.257 2.149zm26.877-3.606h-2.151a39.445 39.445 0 009.616-9.111v7.623h5.566a37.899 37.899 0 01-2.073 1.488h-3.487v9.306c0 4.366.417 6.6 5.294 5.29l.013.025c-1.445 2.62-5.646 3.563-8.806 2.418-2.285-.826-3.966-3.245-3.966-6.367l-.005-10.672z" fill="#39373A"/><path d="M97.489 18.338h-2.152a39.433 39.433 0 009.616-9.111v7.623h5.573a35.575 35.575 0 01-2.08 1.488h-3.499v9.306c0 4.366.423 6.607 5.307 5.29l.012.019c-1.445 2.626-5.645 3.57-8.812 2.43-2.285-.826-3.965-3.245-3.965-6.367V18.338zM10.897 31.575l.006-6.196c-.737 1.004-1.765 1.677-2.92 2.35-2.58 1.513-1.178 5.475.89 5.475.99 0 2.024-.833 2.024-1.629zM21.1 32.879c-1.946 4.004-8.945 4.084-9.743-.245-1.208 3.11-5.62 3.913-8.51 2.651-4.043-1.757-3.632-7.996.49-8.988 2.255-.545 5.295-.202 7.138-1.96a1.28 1.28 0 00.423-.997v-2.363c0-3.093-2.647-3.405-3.705-2.456-.568.508-.61 1.519-.048 2.009 1.946 1.69.991 3.808-.925 4.5-2.454.888-4.436-.3-5.035-2.235-.471-1.525-.132-3.6 1.928-4.904 2.013-1.268 4.938-1.555 6.842-1.555 3.264 0 8.444 1.42 8.444 5.522v9.013c0 2.798 1.668 2.535 2.701 2.008z" fill="#39373A"/><path d="M121.598 17.927c-3.644.007-4.236 16.385 0 16.385 4.237-.006 3.651-16.378 0-16.385zm0 17.885c-14.028 0-13.653-19.427 0-19.427 13.654 0 14.035 19.427 0 19.427zm-51.857-4.237l.006-6.196c-.737 1.004-1.764 1.677-2.92 2.35-2.58 1.513-1.178 5.475.89 5.475.99 0 2.024-.833 2.024-1.629zm10.208 1.304c-1.945 4.004-8.939 4.084-9.742-.245-1.21 3.11-5.622 3.913-8.517 2.651-4.043-1.757-3.632-7.996.49-8.988 2.254-.545 5.295-.202 7.138-1.96a1.28 1.28 0 00.423-.997v-2.363c0-3.093-2.647-3.405-3.705-2.456-.568.508-.61 1.519-.048 2.009 1.946 1.69.99 3.808-.925 4.5-2.454.888-4.436-.3-5.035-2.235-.47-1.525-.132-3.6 1.928-4.904 2.013-1.268 4.938-1.555 6.836-1.555 3.264 0 8.444 1.42 8.444 5.522v9.013c.006 2.798 1.674 2.535 2.713 2.008z" fill="#39373A"/><path fill-rule="evenodd" clip-rule="evenodd" d="M115.113 6.49h3.21c1.764 0 3.209 1.463 3.209 3.251 0 1.788-1.445 3.252-3.209 3.252h-9.635V3.239c0-1.69 1.294-3.092 2.926-3.239h.568c1.632.147 2.925 1.55 2.925 3.239V6.49h.006z" fill="#FFCC29"/><path d="M42.598 45.755c-.121-.177-.236-.343-.339-.496-.108-.153-.211-.306-.314-.453l-.514-.747h-.254v-.716h.242l.46-.612c.108-.147.217-.288.326-.435.109-.14.23-.312.375-.502h1.04c-.17.208-.34.416-.496.618-.164.202-.327.404-.484.613l-.617.771-.018-.404.69.961c.102.147.217.306.338.478.12.171.242.337.356.496.115.159.218.3.303.422h-1.094v.006zm-2.249 0V41.8h.9v3.955h-.9zm7.326 0V41.8h.919v3.955h-.92zm6.122 0v-3.814l.339.649h-1.524v-.796h3.258v.796h-1.523l.345-.65v3.816h-.895zm7.845.074c-.32 0-.604-.05-.858-.147a1.83 1.83 0 01-.653-.423 1.766 1.766 0 01-.41-.649 2.283 2.283 0 01-.14-.832c0-.398.079-.753.236-1.06.157-.312.387-.557.683-.734.296-.178.653-.264 1.07-.264.127 0 .254.007.374.025a3.368 3.368 0 01.671.16c.097.036.182.073.26.115l-.066.851a2.745 2.745 0 00-.411-.22 2.051 2.051 0 00-.381-.116 1.73 1.73 0 00-.345-.037c-.223 0-.422.049-.592.147a1.048 1.048 0 00-.41.435c-.097.19-.152.422-.152.698 0 .177.024.343.078.496.049.153.128.294.23.416.103.122.23.214.387.282.157.067.338.104.544.104a1.84 1.84 0 00.52-.074 1.531 1.531 0 00.52-.27l.048.84a1.462 1.462 0 01-.26.116c-.097.03-.193.061-.296.08-.103.024-.212.036-.32.048-.11.013-.218.013-.327.013zm7.778-.074V41.8h.907v3.955h-.906zm-2.435 0V41.8h.9v3.955h-.9zm.653-1.61v-.76h2.043v.76h-2.043zm6.938 1.61V41.8h2.587v.74H75.03l.428-.6v3.662l-.374-.6h2.103v.741h-2.61v.012zm.671-1.647v-.691h1.826v.691h-1.826zm6.075 1.647V41.8h.785c.181.27.357.527.52.765.163.24.327.478.49.723l.634.93h.066v-2.411h.847v3.953h-.78c-.151-.22-.308-.453-.472-.691-.163-.24-.344-.502-.537-.79l-.641-.943h-.06v2.424h-.853v-.006zm8.83.074c-.163 0-.327-.013-.502-.043a3.447 3.447 0 01-.478-.104 1.83 1.83 0 01-.362-.135l.066-.802a2.765 2.765 0 00.81.3c.133.025.272.043.393.043.127 0 .236-.018.326-.049a.5.5 0 00.218-.14.401.401 0 00.078-.252.35.35 0 00-.096-.257.847.847 0 00-.284-.178 8.91 8.91 0 00-.441-.153 3.454 3.454 0 01-.611-.245 1.014 1.014 0 01-.387-.36c-.09-.148-.133-.338-.133-.57 0-.233.049-.435.151-.612.103-.178.254-.313.454-.417.205-.098.46-.147.767-.147.12 0 .248.006.37.025a3.435 3.435 0 01.677.147c.096.036.186.067.259.104l-.067.802a2.23 2.23 0 00-.362-.184 3.147 3.147 0 00-.37-.116 1.659 1.659 0 00-.325-.037.948.948 0 00-.302.043.492.492 0 00-.218.135.328.328 0 00-.079.232c0 .092.024.166.079.227a.622.622 0 00.236.165c.102.05.241.098.405.147.314.092.555.19.737.294a.958.958 0 01.387.373c.072.147.114.325.114.545 0 .245-.054.453-.157.631a1.06 1.06 0 01-.489.422c-.23.117-.514.166-.864.166z" fill="#39373A"/><path d="M42.598 45.755c-.121-.177-.236-.343-.339-.496-.108-.153-.211-.306-.314-.453l-.514-.747h-.254v-.716h.242l.46-.612c.108-.147.217-.288.326-.435.109-.14.23-.312.375-.502h1.04c-.17.208-.34.416-.496.618-.164.202-.327.404-.484.613l-.617.771-.018-.404.69.961c.102.147.217.306.338.478.12.171.242.337.356.496.115.159.218.3.303.422h-1.094v.006zm-2.249 0V41.8h.9v3.955h-.9zm7.326 0V41.8h.919v3.955h-.92zm6.122 0v-3.814l.339.649h-1.524v-.796h3.258v.796h-1.523l.345-.65v3.816h-.895zm7.845.074c-.32 0-.604-.05-.858-.147a1.83 1.83 0 01-.653-.423 1.766 1.766 0 01-.41-.649 2.283 2.283 0 01-.14-.832c0-.398.079-.753.236-1.06.157-.312.387-.557.683-.734.296-.178.653-.264 1.07-.264.127 0 .254.007.374.025a3.368 3.368 0 01.671.16c.097.036.182.073.26.115l-.066.851a2.745 2.745 0 00-.411-.22 2.051 2.051 0 00-.381-.116 1.73 1.73 0 00-.345-.037c-.223 0-.422.049-.592.147a1.048 1.048 0 00-.41.435c-.097.19-.152.422-.152.698 0 .177.024.343.078.496.049.153.128.294.23.416.103.122.23.214.387.282.157.067.338.104.544.104a1.84 1.84 0 00.52-.074 1.531 1.531 0 00.52-.27l.048.84a1.462 1.462 0 01-.26.116c-.097.03-.193.061-.296.08-.103.024-.212.036-.32.048-.11.013-.218.013-.327.013zm7.778-.074V41.8h.907v3.955h-.906zm-2.435 0V41.8h.9v3.955h-.9zm.653-1.61v-.76h2.043v.76h-2.043zm6.938 1.61V41.8h2.587v.74H75.03l.428-.6v3.662l-.374-.6h2.103v.741h-2.61v.012zm.671-1.647v-.691h1.826v.691h-1.826zm6.075 1.647V41.8h.785c.181.27.357.527.52.765.163.24.327.478.49.723l.634.93h.066v-2.411h.847v3.953h-.78c-.151-.22-.308-.453-.472-.691-.163-.24-.344-.502-.537-.79l-.641-.943h-.06v2.424h-.853v-.006zm8.83.074c-.163 0-.327-.013-.502-.043a3.447 3.447 0 01-.478-.104 1.83 1.83 0 01-.362-.135l.066-.802a2.765 2.765 0 00.81.3c.133.025.272.043.393.043.127 0 .236-.018.326-.049a.5.5 0 00.218-.14.401.401 0 00.078-.252.35.35 0 00-.096-.257.847.847 0 00-.284-.178 8.91 8.91 0 00-.441-.153 3.454 3.454 0 01-.611-.245 1.014 1.014 0 01-.387-.36c-.09-.148-.133-.338-.133-.57 0-.233.049-.435.151-.612.103-.178.254-.313.454-.417.205-.098.46-.147.767-.147.12 0 .248.006.37.025a3.435 3.435 0 01.677.147c.096.036.186.067.259.104l-.067.802a2.23 2.23 0 00-.362-.184 3.147 3.147 0 00-.37-.116 1.659 1.659 0 00-.325-.037.948.948 0 00-.302.043.492.492 0 00-.218.135.328.328 0 00-.079.232c0 .092.024.166.079.227a.622.622 0 00.236.165c.102.05.241.098.405.147.314.092.555.19.737.294a.958.958 0 01.387.373c.072.147.114.325.114.545 0 .245-.054.453-.157.631a1.06 1.06 0 01-.489.422c-.23.117-.514.166-.864.166z" stroke="#39373A" stroke-width=".896" stroke-miterlimit="25.369"/></g><defs><clipPath id="clip0_95_13"><path fill="#fff" d="M0 0h132v46H0z"/></clipPath></defs></svg>