<svg width="60" height="60" fill="none" xmlns="http://www.w3.org/2000/svg"><g clip-path="url(#clip0_100_519)"><path d="M30 60c16.569 0 30-13.431 30-30C60 13.431 46.569 0 30 0 13.431 0 0 13.431 0 30c0 16.569 13.431 30 30 30z" fill="#39373A"/><path d="M33.233 59.826c12.895-1.382 23.343-10.933 26.07-23.376L39.959 17.106s-15.826-.438-21.542 8.964l8.423 8.445-7.5 11.505 13.893 13.806z" fill="#2F2D30"/><path d="M42.478 46.02H19.339v-7.81L34.2 26.958c1.885-1.427 1.43-3.416 1.247-3.992-.177-.554-.932-2.37-3.2-2.436l-.175-.002h-2.628c-3.87 0-4.17 4.241-4.17 5.541h-6.856c0-7.299 4.534-12.396 11.026-12.396h2.667s.224.002.335.005c4.433.13 8.174 2.956 9.53 7.2 1.375 4.3-.053 8.831-3.637 11.545l-8.903 6.74h13.043v6.856z" fill="#fff"/><path d="M38.337 32.423l-7.883 5.97v-8.6l3.745-2.835c1.884-1.426 1.43-3.415 1.247-3.99-.177-.556-.932-2.37-3.2-2.437l-.175-.002h-1.617v-6.855h1.655s.224.002.336.005c4.432.13 8.173 2.955 9.53 7.2 1.374 4.3-.053 8.83-3.638 11.544zm-7.883 6.741h12.023v6.855H30.454v-6.855z" fill="#fff"/></g><defs><clipPath id="clip0_100_519"><path fill="#fff" d="M0 0h60v60H0z"/></clipPath></defs></svg>