<svg width="32" height="32" fill="none" xmlns="http://www.w3.org/2000/svg"><circle cx="15.868" cy="15.658" r="15.658" fill="#FFCC29"/><path d="M17.747 8.947h-2.863a5.025 5.025 0 00-5.01 5.01v2.148a5.03 5.03 0 002.863 4.527v2.398c0 .215.268.322.412.162l2.075-2.076h2.523a5.025 5.025 0 005.011-5.01v-2.148a5.025 5.025 0 00-5.01-5.01zm1.88 9.395l-.734.716c-.77.751-2.756-.108-4.51-1.897-1.753-1.79-2.523-3.794-1.79-4.545l.717-.716c.268-.268.715-.25 1.02.018l1.037 1.074c.376.375.215 1.02-.268 1.163-.34.107-.573.483-.465.823.179.787 1.18 1.79 1.932 1.986.34.072.716-.107.841-.447.162-.483.806-.627 1.164-.25l1.037 1.073c.287.25.287.698.018 1.002zm-2.667-5.995c-.072 0-.143 0-.215.018-.125.018-.25-.09-.268-.215-.018-.125.09-.25.215-.268.09-.018.179-.018.268-.018a2.39 2.39 0 012.38 2.38c0 .09 0 .18-.018.268-.018.126-.143.233-.268.215-.125-.018-.233-.143-.215-.268 0-.072.018-.143.018-.215.018-1.038-.841-1.897-1.897-1.897zm1.432 1.915a.237.237 0 01-.233.233.237.237 0 01-.233-.233.955.955 0 00-.948-.948.237.237 0 01-.233-.233c0-.125.108-.233.233-.233.77-.018 1.414.627 1.414 1.414zm1.825.77a.251.251 0 01-.304.178.23.23 0 01-.161-.286 2.72 2.72 0 00.071-.662 2.872 2.872 0 00-2.863-2.863h-.215c-.125 0-.25-.09-.25-.215s.09-.25.215-.25c.089 0 .178-.018.25-.018a3.353 3.353 0 013.346 3.346c0 .25-.035.519-.09.77z" fill="#39373A"/></svg>