<svg width="32" height="32" fill="none" xmlns="http://www.w3.org/2000/svg"><circle cx="16.342" cy="15.658" r="15.658" fill="#FFCC29"/><g clip-path="url(#clip0_100_675)"><path d="M16.791 8.947h-.003a7.165 7.165 0 00-7.157 7.158c0 1.566.505 3.017 1.363 4.196l-.892 2.659 2.751-.88a7.096 7.096 0 003.938 1.183c3.947 0 7.156-3.211 7.156-7.158 0-3.947-3.21-7.158-7.156-7.158zm4.165 10.108c-.173.488-.858.892-1.405 1.01-.374.08-.862.143-2.507-.538-2.103-.872-3.458-3.01-3.564-3.148-.1-.139-.85-1.132-.85-2.16 0-1.026.522-1.526.732-1.741.173-.176.458-.257.732-.257.089 0 .168.005.24.008.21.01.316.022.455.354.172.416.593 1.443.643 1.548.05.106.102.25.03.388-.067.143-.126.207-.231.328-.106.122-.206.215-.312.346-.096.113-.206.235-.084.445.122.206.542.892 1.161 1.443.8.712 1.447.939 1.679 1.035.173.072.378.055.505-.08.16-.172.358-.458.559-.74.143-.202.324-.227.514-.156.193.067 1.215.573 1.426.678.21.105.349.155.4.244.05.088.05.505-.123.993z" fill="#39373A"/></g><defs><clipPath id="clip0_100_675"><path fill="#fff" transform="translate(9.631 8.947)" d="M0 0h14.316v14.316H0z"/></clipPath></defs></svg>