<svg width="33" height="32" fill="none" xmlns="http://www.w3.org/2000/svg"><circle cx="16.605" cy="15.658" r="15.658" fill="#FFCC29"/><g clip-path="url(#clip0_100_669)"><path d="M25.24 11.14c-.486-.863-1.013-1.022-2.085-1.082-1.072-.073-3.766-.103-6.1-.103-2.339 0-5.034.03-6.104.102-1.07.061-1.599.22-2.089 1.084-.5.862-.757 2.347-.757 4.962v.009c0 2.604.257 4.1.757 4.954.49.863 1.017 1.02 2.087 1.092 1.072.063 3.767.1 6.106.1 2.334 0 5.028-.037 6.1-.099 1.073-.072 1.6-.229 2.086-1.092.504-.854.759-2.35.759-4.954v-.009c0-2.616-.255-4.101-.76-4.963zm-10.424 8.322v-6.71l5.592 3.354-5.592 3.356z" fill="#39373A"/></g><defs><clipPath id="clip0_100_669"><path fill="#fff" transform="translate(8.105 7.158)" d="M0 0h17.895v17.895H0z"/></clipPath></defs></svg>